PathFileType	4	(X/Y/Z)	C:\Users\WrightLab\Desktop\Jo\P3_7.trc
DataRate	CameraRate	NumFrames	NumMarkers	Units	OrigDataRate	OrigDataStartFrame	OrigNumFrames
100.00	100.00	       41	19	mm	100.00	1	       576
Frame#	Time	Headset_Front			Headset_Back			Headset_Left			Headset_Right			Left_Shoulder			Right_Shoulder			Sternum			C7			Left Elbow			Right Elbow			Left Wrist			Right Wrist			Left ASIS			Right ASIS			S2			Left Knee			Right Knee			Left Ankle			Right Ankle			
		X1	Y1	Z1	X2	Y2	Z2	X3	Y3	Z3	X4	Y4	Z4	X5	Y5	Z5	X6	Y6	Z6	X7	Y7	Z7	X8	Y8	Z8	X9	Y9	Z9	X10	Y10	Z10	X11	Y11	Z11	X12	Y12	Z12	X13	Y13	Z13	X14	Y14	Z14	X15	Y15	Z15	X16	Y16	Z16	X17	Y17	Z17	X18	Y18	Z18	X19	Y19	Z19	

1	0.000																									-99.32386	970.75421	-1627.77234				-134.92586	787.19287	-1532.83252	-611.65967	774.87463	-1555.82629	-254.11926	812.04761	-1566.67285										-490.34756	392.93292	-1666.12207							
2	0.010																									-99.60275	970.80560	-1625.23828				-135.57922	786.90894	-1531.56799	-612.27362	775.08655	-1554.69177	-253.50604	812.66876	-1563.17053										-489.75662	391.87674	-1667.23047							
3	0.020																									-99.54196	971.54858	-1623.85925				-136.54297	786.13293	-1527.87549	-612.74249	773.20612	-1555.29053	-252.62527	813.63232	-1558.14795										-490.05475	392.31647	-1661.95740							
4	0.030																									-99.69035	971.63867	-1621.16870				-136.58104	785.75372	-1528.07825	-614.12372	773.20612	-1551.70020	-251.28271	812.77734	-1555.25574										-489.03845	391.10532	-1661.21936							
5	0.040																									-99.89243	970.58600	-1617.04871				-137.55565	785.35229	-1524.89490	-614.86090	773.82050	-1549.10974	-250.41937	811.44965	-1553.83057										-488.14532	393.05383	-1652.55066							
6	0.050																									-99.16966	969.21600	-1612.12195				-137.73335	783.42969	-1524.15320	-615.01880	772.61792	-1548.80872	-250.26750	811.29156	-1552.91577										-488.15387	393.54791	-1644.61987							
7	0.060																									-99.11121	969.65497	-1610.37598				-138.83910	783.51709	-1519.99268	-615.61316	771.04010	-1546.02637	-250.76248	810.98267	-1549.43103										-487.77649	391.09961	-1642.44934							
8	0.070																									-98.88340	968.90900	-1606.73328				-138.68211	782.23688	-1520.81812	-615.75500	770.26324	-1546.50293	-250.87782	810.77985	-1547.44653										-488.56677	390.28214	-1635.62012							
9	0.080																									-99.56973	970.00873	-1607.23132				-139.60114	781.76031	-1517.63440	-616.79272	769.61194	-1543.49658	-250.69026	810.92761	-1546.36841										-489.71869	390.49503	-1625.72009							
10	0.090																									-99.42382	970.09497	-1605.10754				-140.42992	780.57623	-1514.91504	-616.79205	767.74933	-1546.72021	-251.02458	811.13452	-1543.38428										-489.42865	388.35922	-1617.14441							
11	0.100																									-99.44668	969.64197	-1602.26819				-140.43056	780.32269	-1514.89185	-618.08691	767.78503	-1542.76050	-249.71933	808.69312	-1545.90173										-488.60995	388.08246	-1606.30774							
12	0.110																									-98.56222	967.70831	-1596.42834				-140.96167	780.06006	-1512.86914	-618.36554	766.35938	-1542.58557	-249.36987	808.70715	-1542.24683										-489.85443	386.02737	-1595.18689							
13	0.120																									-98.84249	967.59827	-1595.11060				-141.86897	779.36115	-1509.12439	-619.53876	767.39703	-1539.05701	-249.76199	809.06268	-1537.91284										-491.37857	384.06317	-1585.54797							
14	0.130																									-98.24788	966.76190	-1592.20459				-142.03812	777.23694	-1507.95764	-620.62817	765.95282	-1535.75122	-250.23958	807.77350	-1533.28796										-492.22144	383.31293	-1578.45654							
15	0.140																									-98.20155	965.91827	-1589.17517				-142.60358	775.61719	-1505.14526	-621.00854	764.88885	-1537.24927	-250.10072	807.13129	-1532.38086										-493.68558	382.65164	-1565.78210							
16	0.150																									-97.90885	964.05817	-1584.58777				-143.02251	775.23413	-1503.14270	-621.56189	763.55505	-1539.47180	-251.28894	807.30908	-1525.69507										-494.00186	384.01254	-1552.04175				-478.43402	78.76730	-1696.41162	
17	0.160																									-97.82011	962.97253	-1581.37244				-143.21275	773.83948	-1503.09448	-622.72296	761.69232	-1536.40259	-252.18146	806.42914	-1521.99243										-495.47256	386.44678	-1537.57434				-478.74747	83.22458	-1694.03503	
18	0.170																									-97.66766	962.59503	-1579.09460				-143.68369	771.96887	-1500.15576	-623.45398	761.74408	-1534.61316	-253.55585	806.09814	-1519.43103										-496.60580	388.53217	-1527.85718				-479.11688	88.34019	-1687.58447	
19	0.180																									-98.60566	961.09393	-1575.49475				-144.19044	769.94397	-1496.93286	-624.23022	760.97467	-1532.89087	-254.89668	805.84894	-1517.35474										-499.47751	389.68613	-1513.51978				-480.52783	93.74837	-1678.98438	
20	0.190																									-99.13833	960.69513	-1572.54639				-144.27658	769.11444	-1495.64563	-625.37433	761.37396	-1528.36145	-255.92181	803.64655	-1515.82446										-502.10382	393.35065	-1501.15320				-480.12964	97.50358	-1675.22742	
21	0.200																									-99.34884	959.97552	-1568.61743				-145.00604	768.65314	-1490.58289	-626.29773	761.68915	-1526.58655	-257.18848	802.04346	-1514.75159										-503.83313	395.37250	-1494.56091				-480.21655	101.36262	-1667.98718	
22	0.210																									-99.82867	959.38733	-1564.26575				-145.47476	768.03119	-1488.14807	-626.75018	760.19507	-1527.55725	-259.77802	803.12347	-1507.65295										-507.07645	399.60779	-1481.93054				-481.67563	105.33192	-1657.06445	
23	0.220																									-100.61211	957.93744	-1558.03333				-145.71918	765.12866	-1486.62952	-627.42621	759.48694	-1526.61401	-260.54218	802.62219	-1507.10913										-510.60498	402.61133	-1471.79370				-482.30981	106.40338	-1651.21643	
24	0.230																									-102.20989	958.50836	-1554.78320				-145.84708	762.81604	-1484.44458	-627.74817	757.63019	-1526.41174	-261.27771	801.51862	-1504.08008										-514.86591	404.50336	-1464.32483				-485.05490	110.99114	-1634.67554	
25	0.240																									-102.71945	958.05695	-1549.79333				-146.44534	762.54797	-1482.87732	-628.72803	757.23840	-1523.23804	-262.10379	800.87482	-1500.61926										-518.18640	406.36612	-1460.26929				-488.13705	110.63421	-1620.77734	
26	0.250																									-103.35596	957.94067	-1544.88940				-147.92368	763.69354	-1475.73694	-630.32886	758.67212	-1516.35437	-264.40048	801.96906	-1491.91321										-521.34186	409.51880	-1449.69568				-489.80884	109.39361	-1612.15320	
27	0.260																									-104.91144	957.35162	-1538.53650				-148.82825	762.77026	-1471.90100	-631.11719	759.19562	-1514.02979	-265.00269	801.07941	-1490.38599										-524.17944	413.42200	-1439.53296				-494.23224	109.54441	-1595.34802	
28	0.270																									-106.53843	958.15454	-1534.29138				-150.40964	762.06244	-1467.19714	-631.57776	758.38074	-1515.92590	-265.83987	799.52234	-1487.90344										-527.62476	417.30066	-1427.68665				-499.09332	107.49175	-1579.02600	
29	0.280																									-107.26271	958.84790	-1529.97522				-151.05612	761.17285	-1465.87646	-632.50836	757.03210	-1515.25623	-266.71588	799.04395	-1484.78894										-530.51691	417.30789	-1427.93555				-503.62012	104.61217	-1566.12268	
30	0.290																									-108.51389	959.40045	-1524.95227				-152.76405	761.68726	-1460.17834	-634.23175	757.64160	-1510.89807	-267.99838	799.30591	-1478.01941										-535.02649	419.51105	-1420.93665				-509.53687	102.12529	-1547.64343	
31	0.300																									-109.71438	960.34955	-1519.68994				-153.87042	760.66956	-1457.63770	-636.46582	757.44598	-1508.66992	-269.24344	799.03674	-1472.24976										-537.84674	421.56601	-1414.56189				-515.74707	100.15448	-1527.52637	
32	0.310																									-110.95988	959.61847	-1513.16101				-155.28099	760.81464	-1452.01929	-638.17236	754.66736	-1511.16736	-270.45227	797.11267	-1469.34998										-540.37225	422.85522	-1408.34204				-521.85968	98.24834	-1507.15723	
33	0.320																									-111.76908	959.91949	-1507.78162				-155.73267	760.83423	-1449.60938	-639.51501	752.96643	-1512.62134	-272.08633	796.55457	-1465.11841										-542.73535	425.96564	-1393.15161				-527.65350	95.44758	-1488.57019	
34	0.330																									-113.33944	960.14087	-1501.92981				-158.16333	761.91132	-1441.20776	-641.58649	752.95044	-1505.11365	-273.72372	796.00122	-1460.12036										-547.26251	427.65805	-1387.86121				-533.66400	92.40492	-1471.17554	
35	0.340																-544.52942	1289.32104	-1560.06238							-114.42734	960.86133	-1497.34583				-159.14890	759.90234	-1438.76746	-643.30042	752.04065	-1500.09644	-275.00104	795.20728	-1454.68262										-549.47552	428.26953	-1382.20496				-542.54938	91.83195	-1448.77637	
36	0.350																-546.41309	1289.47021	-1557.00281							-115.50790	960.07843	-1490.24060				-160.09229	758.74176	-1436.53418	-643.55450	751.12830	-1501.02454	-277.52890	794.56055	-1446.17126										-553.44043	429.85510	-1376.73083				-548.77087	88.50410	-1432.73181	
37	0.360																-548.51508	1288.03345	-1550.10071							-116.95366	959.95355	-1484.32104				-163.10744	760.31140	-1426.72437	-645.91144	749.70703	-1494.56055	-278.67166	792.97327	-1444.47107										-555.29688	428.74609	-1372.42004				-556.71619	89.50481	-1406.73096	
38	0.370																-550.28949	1286.53027	-1543.86255							-118.48703	960.04419	-1478.98755				-163.95215	759.11890	-1423.53955	-648.59283	748.47498	-1489.61572	-279.92206	791.92755	-1439.72852										-558.76929	428.69226	-1366.78381				-561.99164	86.31673	-1394.18701	
39	0.380																-553.03632	1286.07532	-1538.72290							-119.49773	959.35547	-1472.40137				-165.62056	759.15564	-1417.51758	-650.46008	745.70569	-1492.80457	-282.08627	793.26514	-1430.65454										-562.56238	429.50098	-1361.81055				-570.88190	86.43972	-1373.80981	
40	0.390																-554.87299	1283.70605	-1530.39612							-121.23785	958.64276	-1465.54736				-167.89517	758.53314	-1411.40979	-654.61884	744.31799	-1486.46338	-283.99026	789.89044	-1426.11572										-565.69159	429.04593	-1357.51843				-576.97644	84.44902	-1358.97498	
41	0.400				-399.77020	1441.35608	-1253.13025										-557.80133	1283.25195	-1525.46130							-122.96552	959.03162	-1460.91809				-170.16154	757.42224	-1405.26050	-655.65692	742.16693	-1485.71155	-286.72589	791.33191	-1415.65088										-568.46790	429.60147	-1352.02722				-583.79590	89.58314	-1333.86670	
